<svg width="149" height="241" viewBox="0 0 149 241" fill="none" xmlns="http://www.w3.org/2000/svg">
<path d="M87.352 219.136C86.52 219.424 85.768 219.68 85.096 219.904C84.456 220.096 83.848 220.256 83.272 220.384C82.728 220.512 82.2 220.592 81.688 220.624C81.176 220.688 80.664 220.72 80.152 220.72C77.336 220.72 74.904 220.256 72.856 219.328C70.808 218.368 69.112 217.232 67.768 215.92C66.2 214.352 65 212.544 64.168 210.496C63.336 208.448 62.92 206.368 62.92 204.256C62.92 201.952 63.368 199.776 64.264 197.728C65.16 195.68 66.328 193.92 67.768 192.448C69.208 191.008 70.952 189.824 73 188.896C75.08 187.936 77.368 187.456 79.864 187.456C80.632 187.456 81.64 187.552 82.888 187.744C84.136 187.936 85.624 188.384 87.352 189.088V199.024C86.68 198.192 85.992 197.552 85.288 197.104C84.584 196.624 83.896 196.272 83.224 196.048C82.584 195.792 81.992 195.648 81.448 195.616C80.904 195.552 80.456 195.52 80.104 195.52C78.888 195.52 77.816 195.696 76.888 196.048C75.96 196.4 75.112 196.928 74.344 197.632C73.352 198.56 72.632 199.616 72.184 200.8C71.768 201.952 71.56 203.088 71.56 204.208C71.56 205.328 71.784 206.448 72.232 207.568C72.68 208.688 73.32 209.648 74.152 210.448C74.856 211.088 75.72 211.616 76.744 212.032C77.8 212.448 78.92 212.656 80.104 212.656C80.424 212.656 80.84 212.64 81.352 212.608C81.864 212.544 82.44 212.4 83.08 212.176C83.752 211.952 84.44 211.616 85.144 211.168C85.88 210.72 86.616 210.096 87.352 209.296V219.136ZM103.954 204.352C103.314 204.352 102.69 204.48 102.082 204.736C101.474 204.992 100.946 205.328 100.498 205.744C100.018 206.192 99.6496 206.736 99.3936 207.376C99.1376 207.984 99.0096 208.608 99.0096 209.248C99.0096 209.888 99.1376 210.512 99.3936 211.12C99.6816 211.696 100.05 212.208 100.498 212.656C101.458 213.616 102.61 214.096 103.954 214.096C105.266 214.096 106.402 213.616 107.362 212.656C107.842 212.208 108.21 211.696 108.466 211.12C108.722 210.512 108.85 209.888 108.85 209.248C108.85 208.672 108.722 208.064 108.466 207.424C108.21 206.784 107.842 206.224 107.362 205.744C106.914 205.328 106.386 204.992 105.778 204.736C105.17 204.48 104.562 204.352 103.954 204.352ZM116.818 209.248C116.818 210.688 116.562 212.08 116.05 213.424C115.538 214.768 114.69 216.016 113.506 217.168C112.066 218.576 110.53 219.52 108.898 220C107.298 220.48 105.634 220.72 103.906 220.72C102.338 220.72 100.722 220.496 99.0576 220.048C97.4256 219.6 95.8576 218.64 94.3536 217.168C93.1696 216.016 92.3216 214.768 91.8096 213.424C91.2976 212.08 91.0416 210.688 91.0416 209.248C91.0416 207.328 91.3936 205.728 92.0976 204.448C92.8016 203.168 93.5536 202.144 94.3536 201.376C95.2496 200.512 96.4816 199.712 98.0496 198.976C99.6176 198.208 101.57 197.824 103.906 197.824C105.09 197.824 106.162 197.936 107.122 198.16C108.114 198.352 109.01 198.624 109.81 198.976C110.61 199.296 111.314 199.68 111.922 200.128C112.53 200.544 113.058 200.96 113.506 201.376C114.306 202.144 115.058 203.168 115.762 204.448C116.466 205.728 116.818 207.328 116.818 209.248ZM104.338 195.904L112.354 190.384L108.514 186.352L101.698 192.88L104.338 195.904Z" fill="#B72126"/>
<path fill-rule="evenodd" clip-rule="evenodd" d="M0 179.847V231H49V179.847H0ZM99.8473 173H149V150.805C149 143.108 146.58 136.081 141.788 129.698C136.996 123.316 130.995 118.584 123.783 115.5C130.971 112.632 136.973 107.899 141.788 101.302C146.604 94.7043 149 87.5572 149 79.8604V42.9061C149 30.8112 144.588 20.6284 135.739 12.3818C126.891 4.13524 114.389 0 98.2342 0H0V51.1527H91.3547C92.2087 51.1527 93.0865 51.3679 93.9642 51.822C97.8784 53.1606 99.8473 55.049 99.8473 57.4871V78.7848C99.8473 85.6689 96.2415 89.7563 89.0299 91.0949H87.7252H86.4205H49.0815V139.905H86.4205C87.7252 139.905 88.5792 140.025 89.0299 140.24C96.2415 141.339 99.8473 145.427 99.8473 152.454V173Z" fill="#B72126"/>
</svg>
