<svg width="210" height="241" viewBox="0 0 210 241" fill="none" xmlns="http://www.w3.org/2000/svg">
<path d="M72.664 201.184L82.84 187.984H93.112L80.392 203.152L94.264 220H83.512L72.664 206.128V220H64.36V187.984H72.664V201.184ZM97.2494 185.008H104.929V201.232C105.217 200.88 105.569 200.512 105.985 200.128C106.433 199.712 106.881 199.376 107.329 199.12C108.065 198.672 108.817 198.384 109.585 198.256C110.353 198.128 111.073 198.064 111.745 198.064C113.281 198.064 114.561 198.288 115.585 198.736C116.609 199.184 117.441 199.728 118.081 200.368C119.041 201.328 119.617 202.32 119.809 203.344C120.001 204.336 120.097 205.344 120.097 206.368V220H112.417V209.152C112.417 208.352 112.369 207.584 112.273 206.848C112.177 206.08 111.905 205.456 111.457 204.976C111.105 204.56 110.705 204.304 110.257 204.208C109.809 204.112 109.393 204.064 109.009 204.064C108.593 204.064 108.129 204.128 107.617 204.256C107.137 204.352 106.673 204.592 106.225 204.976C105.873 205.296 105.569 205.744 105.313 206.32C105.057 206.896 104.929 207.616 104.929 208.48V220H97.2494V185.008ZM137.376 204.352C136.736 204.352 136.112 204.48 135.504 204.736C134.896 204.992 134.368 205.328 133.92 205.744C133.44 206.192 133.072 206.736 132.816 207.376C132.56 207.984 132.432 208.608 132.432 209.248C132.432 209.888 132.56 210.512 132.816 211.12C133.104 211.696 133.472 212.208 133.92 212.656C134.88 213.616 136.032 214.096 137.376 214.096C138.688 214.096 139.824 213.616 140.784 212.656C141.264 212.208 141.632 211.696 141.888 211.12C142.144 210.512 142.272 209.888 142.272 209.248C142.272 208.672 142.144 208.064 141.888 207.424C141.632 206.784 141.264 206.224 140.784 205.744C140.336 205.328 139.808 204.992 139.2 204.736C138.592 204.48 137.984 204.352 137.376 204.352ZM150.24 209.248C150.24 210.688 149.984 212.08 149.472 213.424C148.96 214.768 148.112 216.016 146.927 217.168C145.488 218.576 143.952 219.52 142.32 220C140.72 220.48 139.056 220.72 137.328 220.72C135.76 220.72 134.144 220.496 132.48 220.048C130.848 219.6 129.28 218.64 127.776 217.168C126.592 216.016 125.744 214.768 125.232 213.424C124.72 212.08 124.464 210.688 124.464 209.248C124.464 207.328 124.816 205.728 125.52 204.448C126.224 203.168 126.976 202.144 127.776 201.376C128.672 200.512 129.904 199.712 131.472 198.976C133.04 198.208 134.992 197.824 137.328 197.824C138.512 197.824 139.584 197.936 140.544 198.16C141.536 198.352 142.432 198.624 143.232 198.976C144.032 199.296 144.736 199.68 145.344 200.128C145.952 200.544 146.48 200.96 146.927 201.376C147.728 202.144 148.48 203.168 149.184 204.448C149.888 205.728 150.24 207.328 150.24 209.248ZM133.344 195.904L130.032 192.736L137.52 186.88L145.104 192.736L141.696 195.904L137.52 192.496L133.344 195.904ZM154.671 198.544H162.351V201.232C162.863 200.528 163.423 199.968 164.031 199.552C164.639 199.136 165.247 198.816 165.855 198.592C166.463 198.368 167.039 198.224 167.583 198.16C168.159 198.096 168.687 198.064 169.167 198.064C170.287 198.064 171.391 198.224 172.479 198.544C173.599 198.864 174.607 199.472 175.503 200.368C176.399 201.296 176.959 202.24 177.183 203.2C177.407 204.128 177.519 205.184 177.519 206.368V220H169.839V209.152C169.839 208.512 169.807 207.792 169.743 206.992C169.679 206.192 169.391 205.52 168.879 204.976C168.527 204.592 168.127 204.352 167.679 204.256C167.231 204.128 166.815 204.064 166.431 204.064C165.823 204.064 165.279 204.16 164.799 204.352C164.319 204.544 163.919 204.784 163.599 205.072C163.215 205.424 162.911 205.92 162.687 206.56C162.463 207.2 162.351 207.84 162.351 208.48V220H154.671V198.544ZM206.893 198.544V218.656C206.893 219.456 206.861 220.24 206.797 221.008C206.733 221.776 206.605 222.528 206.413 223.264C206.221 224 205.933 224.72 205.549 225.424C205.165 226.16 204.637 226.864 203.965 227.536C203.293 228.24 202.557 228.816 201.757 229.264C200.989 229.712 200.189 230.064 199.357 230.32C198.557 230.576 197.741 230.752 196.909 230.848C196.077 230.944 195.277 230.992 194.509 230.992C192.493 230.992 190.653 230.704 188.989 230.128C187.357 229.584 185.853 228.608 184.477 227.2C183.837 226.56 183.325 225.888 182.941 225.184C182.557 224.48 182.285 223.664 182.125 222.736H190.669C190.733 222.96 190.829 223.2 190.957 223.456C191.117 223.712 191.325 223.952 191.581 224.176C191.869 224.4 192.221 224.576 192.637 224.704C193.085 224.864 193.629 224.944 194.269 224.944C194.877 224.944 195.469 224.864 196.045 224.704C196.621 224.544 197.165 224.224 197.677 223.744C198.317 223.136 198.733 222.48 198.925 221.776C199.117 221.072 199.213 220.4 199.213 219.76V217.6C198.605 218.24 198.013 218.752 197.437 219.136C196.861 219.488 196.301 219.76 195.757 219.952C195.213 220.144 194.685 220.272 194.173 220.336C193.661 220.4 193.197 220.432 192.781 220.432C190.797 220.432 189.165 220.112 187.885 219.472C186.605 218.832 185.597 218.144 184.861 217.408C183.901 216.416 183.165 215.232 182.653 213.856C182.141 212.48 181.885 211.056 181.885 209.584C181.885 207.888 182.173 206.32 182.749 204.88C183.357 203.408 184.125 202.176 185.053 201.184C186.077 200.096 187.261 199.28 188.605 198.736C189.981 198.192 191.389 197.92 192.829 197.92C193.149 197.92 193.549 197.952 194.029 198.016C194.541 198.08 195.085 198.208 195.661 198.4C196.237 198.592 196.829 198.88 197.437 199.264C198.045 199.616 198.637 200.112 199.213 200.752V198.544H206.893ZM194.653 204.304C193.341 204.304 192.205 204.784 191.245 205.744C190.701 206.32 190.317 206.912 190.093 207.52C189.869 208.128 189.757 208.688 189.757 209.2C189.757 209.84 189.885 210.464 190.141 211.072C190.397 211.68 190.765 212.224 191.245 212.704C191.757 213.216 192.317 213.584 192.925 213.808C193.533 214 194.125 214.096 194.701 214.096C195.309 214.096 195.917 213.968 196.525 213.712C197.165 213.456 197.709 213.104 198.157 212.656C198.637 212.176 198.989 211.616 199.213 210.976C199.469 210.336 199.597 209.744 199.597 209.2C199.597 208.656 199.453 208.048 199.165 207.376C198.877 206.704 198.509 206.144 198.061 205.696C197.613 205.248 197.085 204.912 196.477 204.688C195.901 204.432 195.293 204.304 194.653 204.304Z" fill="#B72126"/>
<path fill-rule="evenodd" clip-rule="evenodd" d="M0 179.847V231H49V179.847H0ZM99.8473 173H149V150.805C149 143.108 146.58 136.081 141.788 129.698C136.996 123.316 130.995 118.584 123.783 115.5C130.971 112.632 136.973 107.899 141.788 101.302C146.604 94.7043 149 87.5572 149 79.8604V42.9061C149 30.8112 144.588 20.6284 135.739 12.3818C126.891 4.13524 114.389 0 98.2342 0H0V51.1527H91.3547C92.2087 51.1527 93.0865 51.3679 93.9642 51.822C97.8784 53.1606 99.8473 55.049 99.8473 57.4871V78.7848C99.8473 85.6689 96.2415 89.7563 89.0299 91.0949H87.7252H86.4205H49.0815V139.905H86.4205C87.7252 139.905 88.5792 140.025 89.0299 140.24C96.2415 141.339 99.8473 145.427 99.8473 152.454V173Z" fill="#B72126"/>
</svg>
