<svg width="48" height="48" viewBox="0 0 48 48" fill="none" xmlns="http://www.w3.org/2000/svg">
<g clip-path="url(#clip0_41074_7101)">
<path d="M48 26.1131C47.9996 25.8658 47.8627 25.6289 47.6484 25.5051L36.33 18.9705L36.3593 7.44768C36.3593 7.19971 36.2227 6.96093 36.0077 6.83718L24.3289 0.0941193C24.2217 0.0322108 24.1 -0.000288203 23.9762 -9.06575e-05C23.8524 0.000106888 23.7309 0.032994 23.6239 0.0952443L12.0238 6.83643C11.8067 6.94518 11.6719 7.20815 11.6711 7.44431L11.6419 18.9617L0.383064 25.5047C0.165939 25.6131 0.0311268 25.8764 0.0303768 26.1122L1.79732e-06 38.0362C-0.000277846 38.1599 0.0320793 38.2815 0.0938063 38.3887C0.155533 38.4958 0.244445 38.5848 0.351564 38.6466L12.0304 45.3897C12.2227 45.5341 12.5357 45.505 12.7354 45.3887L18.1058 42.2675C18.1857 42.2211 18.2556 42.1594 18.3116 42.086C18.3676 42.0125 18.4086 41.9288 18.4322 41.8395C18.4559 41.7503 18.4617 41.6572 18.4494 41.5657C18.437 41.4742 18.4068 41.386 18.3604 41.3062C18.2667 41.145 18.1128 41.0276 17.9326 40.9799C17.7524 40.9321 17.5606 40.958 17.3994 41.0516L13.088 43.5568L13.1144 33.2623L23.309 27.3378L23.2826 37.6327L20.3855 39.3161C20.3045 39.3619 20.2335 39.4233 20.1764 39.4968C20.1194 39.5703 20.0775 39.6543 20.0532 39.7441C20.0288 39.8338 20.0225 39.9275 20.0347 40.0197C20.0468 40.112 20.0771 40.2008 20.1238 40.2813C20.1706 40.3617 20.2328 40.432 20.3069 40.4882C20.381 40.5444 20.4655 40.5854 20.5555 40.6087C20.6456 40.632 20.7393 40.6372 20.8314 40.6241C20.9235 40.6109 21.012 40.5796 21.0919 40.532L23.9861 38.8503L35.3119 45.3893C35.5045 45.5337 35.8177 45.5047 36.0169 45.3887L47.6198 38.6456C47.726 38.584 47.8142 38.4956 47.8755 38.3892C47.9369 38.2829 47.9693 38.1623 47.9695 38.0395L47.9798 34.0181C47.9801 33.9258 47.9622 33.8343 47.927 33.7489C47.8919 33.6635 47.8404 33.5858 47.7752 33.5204C47.7101 33.4549 47.6327 33.4029 47.5475 33.3674C47.4623 33.3318 47.3709 33.3134 47.2786 33.3131H47.2767C47.0905 33.3131 46.912 33.387 46.7802 33.5184C46.6484 33.6499 46.5741 33.8283 46.5736 34.0145L46.5645 37.6323L36.3698 43.5568L36.3963 33.2619L46.5908 27.3378L46.5817 30.7779C46.5812 30.9644 46.6548 31.1434 46.7863 31.2756C46.9178 31.4078 47.0964 31.4824 47.2829 31.4829H47.2848C47.471 31.4831 47.6496 31.4093 47.7815 31.2778C47.9133 31.1463 47.9876 30.9678 47.9879 30.7816L48 26.1159V26.1131ZM23.3489 14.5942L23.3225 24.8963L13.0481 18.9641L13.0744 8.66193L23.3489 14.5942ZM12.3377 20.1836L22.6124 26.1158L12.4113 32.0441L2.13647 26.1122L12.3377 20.1836ZM24.7152 27.3302L34.99 33.2621L34.9636 43.5643L24.6889 37.6325L24.7152 27.3302ZM35.6928 32.0445L25.4201 26.1133L35.6217 20.1851L45.8943 26.1158L35.6928 32.0445ZM23.9784 1.51574L34.2532 7.44796L28.7641 10.6377C28.6843 10.6841 28.6143 10.7458 28.5583 10.8192C28.5023 10.8926 28.4614 10.9764 28.4377 11.0656C28.4141 11.1549 28.4083 11.248 28.4206 11.3395C28.4329 11.431 28.4632 11.5192 28.5096 11.599C28.7044 11.9348 29.135 12.0487 29.4708 11.8535L34.9497 8.66971L34.9238 18.9616L24.7291 24.8862L24.7555 14.5939L26.6173 13.5117C26.6972 13.4654 26.7671 13.4037 26.8231 13.3303C26.8791 13.257 26.9201 13.1732 26.9437 13.084C26.9674 12.9948 26.9732 12.9017 26.9609 12.8102C26.9485 12.7187 26.9183 12.6306 26.8718 12.5508C26.6767 12.215 26.2463 12.1008 25.9109 12.2959L24.052 13.3762L13.7772 7.44393L23.9784 1.51574ZM1.43372 27.3303L11.7082 33.2622L11.6817 43.5644L1.40738 37.6326L1.43372 27.3303Z" fill="white"/>
</g>
<defs>
<clipPath id="clip0_41074_7101">
<rect width="48" height="48" fill="white"/>
</clipPath>
</defs>
</svg>
