<svg width="16" height="14" viewBox="0 0 16 14" fill="none" xmlns="http://www.w3.org/2000/svg">
<path d="M2.9375 4.875C2.75 5.25 2.3125 5.40625 1.9375 5.25C1.5625 5.09375 1.375 4.65625 1.53125 4.28125C2.59375 1.78125 5.09375 0 8 0C9.625 0 11.1875 0.65625 12.3438 1.8125L12.5 1.96875L13.5938 0.84375C13.8125 0.625 14.0938 0.5 14.375 0.5C15 0.5 15.5 1 15.5 1.625V5.25C15.5 5.6875 15.1562 6 14.75 6H11.0938C10.4688 6 10 5.53125 10 4.90625C10 4.625 10.0938 4.34375 10.3125 4.125L11.4375 3L11.2812 2.875C10.4062 2 9.21875 1.5 8 1.5C5.71875 1.5 3.75 2.90625 2.9375 4.875ZM14.4375 9.78125C13.3438 12.25 10.875 14 8 14C6.34375 14 4.78125 13.375 3.625 12.1875L3.5 12.0625L2.375 13.1875C2.15625 13.4062 1.875 13.5 1.59375 13.5C0.96875 13.5 0.5 13.0312 0.5 12.4062V8.75C0.5 8.34375 0.8125 8 1.25 8H4.875C5.5 8 6 8.5 6 9.125C6 9.40625 5.875 9.6875 5.65625 9.90625L4.5625 11L4.6875 11.1562C5.5625 12.0312 6.75 12.5 8 12.5C10.25 12.5 12.2188 11.1562 13.0312 9.1875C13.2188 8.78125 13.6562 8.625 14.0312 8.78125C14.4062 8.9375 14.5938 9.375 14.4375 9.78125ZM14 4.5V2.5625L12.0312 4.5H14ZM2 9.5V11.4688L3.9375 9.5H2Z" fill="white"/>
</svg>
