<svg width="25" height="21" viewBox="0 0 25 21" fill="none" xmlns="http://www.w3.org/2000/svg">
<path d="M0.9375 0.5H2.8125C3.98438 0.5 5 1.51562 5 2.6875V16.4375C5 16.6328 5.11719 16.75 5.3125 16.75H8.125H19.375H24.0625C24.5703 16.75 25 17.1797 25 17.6875C25 18.2344 24.5703 18.625 24.0625 18.625H21.25C21.25 19.6797 20.3906 20.5 19.375 20.5C18.3203 20.5 17.5 19.6797 17.5 18.625H10C10 19.6797 9.14062 20.5 8.125 20.5C7.07031 20.5 6.25 19.6797 6.25 18.625H5.3125C4.10156 18.625 3.125 17.6484 3.125 16.4375V2.6875C3.125 2.53125 2.96875 2.375 2.8125 2.375H0.9375C0.390625 2.375 0 1.98438 0 1.4375C0 0.929688 0.390625 0.5 0.9375 0.5ZM9.375 3.625V12.375H14.375V3.625H9.375ZM7.5 3.625C7.5 2.60938 8.32031 1.75 9.375 1.75H14.375C15.3906 1.75 16.25 2.60938 16.25 3.625V12.375C16.25 13.4297 15.3906 14.25 14.375 14.25H9.375C8.32031 14.25 7.5 13.4297 7.5 12.375V3.625ZM21.875 3.625H19.375V6.125H21.875V3.625ZM19.375 1.75H21.875C22.8906 1.75 23.75 2.60938 23.75 3.625V6.125C23.75 7.17969 22.8906 8 21.875 8H19.375C18.3203 8 17.5 7.17969 17.5 6.125V3.625C17.5 2.60938 18.3203 1.75 19.375 1.75ZM19.375 11.125V12.375H23.125V11.125H19.375ZM17.5 11.125C17.5 10.1094 18.3203 9.25 19.375 9.25H23.125C24.1406 9.25 25 10.1094 25 11.125V12.375C25 13.4297 24.1406 14.25 23.125 14.25H19.375C18.3203 14.25 17.5 13.4297 17.5 12.375V11.125Z" fill="#222222"/>
</svg>
