<svg width="16" height="16" viewBox="0 0 16 16" fill="none" xmlns="http://www.w3.org/2000/svg">
<path d="M14.5 6C15.3125 6 16 6.6875 16 7.5V14.5C16 15.3438 15.3125 16 14.5 16H5.5C5.09375 16 4.75 15.875 4.5 15.625C4.21875 15.875 3.875 16 3.5 16H1.5C0.65625 16 0 15.3438 0 14.5V5.5C0 4.6875 0.65625 4 1.5 4H3.5C3.65625 4 3.8125 4.0625 4 4.09375V2C4 0.90625 4.875 0 6 0H12.7812C13.0312 0 13.2812 0.125 13.5 0.3125L14.6875 1.5C14.875 1.6875 15 1.96875 15 2.21875V4.5C15 4.78125 14.75 5 14.5 5C14.2188 5 14 4.78125 14 4.5V2.21875L12.7812 1H6C5.4375 1 5 1.46875 5 2V6.09375C5.15625 6.0625 5.3125 6 5.5 6H14.5ZM4 14.5V5.5C4 5.25 3.75 5 3.5 5H1.5C1.21875 5 1 5.25 1 5.5V14.5C1 14.7812 1.21875 15 1.5 15H3.5C3.75 15 4 14.7812 4 14.5ZM15 14.5V7.5C15 7.25 14.75 7 14.5 7H5.5C5.21875 7 5 7.25 5 7.5V14.5C5 14.7812 5.21875 15 5.5 15H14.5C14.75 15 15 14.7812 15 14.5ZM8.5 8.75C8.90625 8.75 9.25 9.09375 9.25 9.5C9.25 9.9375 8.90625 10.25 8.5 10.25C8.0625 10.25 7.75 9.9375 7.75 9.5C7.75 9.09375 8.0625 8.75 8.5 8.75ZM8.5 11.75C8.90625 11.75 9.25 12.0938 9.25 12.5C9.25 12.9375 8.90625 13.25 8.5 13.25C8.0625 13.25 7.75 12.9375 7.75 12.5C7.75 12.0938 8.0625 11.75 8.5 11.75ZM11.5 8.75C11.9062 8.75 12.25 9.09375 12.25 9.5C12.25 9.9375 11.9062 10.25 11.5 10.25C11.0625 10.25 10.75 9.9375 10.75 9.5C10.75 9.09375 11.0625 8.75 11.5 8.75ZM11.5 11.75C11.9062 11.75 12.25 12.0938 12.25 12.5C12.25 12.9375 11.9062 13.25 11.5 13.25C11.0625 13.25 10.75 12.9375 10.75 12.5C10.75 12.0938 11.0625 11.75 11.5 11.75Z" fill="black"/>
</svg>
