<svg width="59" height="59" viewBox="0 0 59 59" fill="none" xmlns="http://www.w3.org/2000/svg">
	<path opacity="0.8" d="M29.5 59C45.7924 59 59 45.7924 59 29.5C59 13.2076 45.7924 0 29.5 0C13.2076 0 0 13.2076 0 29.5C0 45.7924 13.2076 59 29.5 59Z" fill="white" fill-opacity="0.95"/>
	<path d="M43.7511 43.75L36.3887 36.3876M28.8761 24.625V33.125M33.1261 28.875H24.6261M36.3887 36.3876C38.3813 34.3949 39.5008 31.6923 39.5008 28.8743C39.5008 26.0563 38.3813 23.3537 36.3887 21.361C34.396 19.3684 31.6934 18.2489 28.8754 18.2489C26.0574 18.2489 23.3548 19.3684 21.3621 21.361C19.3695 23.3537 18.25 26.0563 18.25 28.8743C18.25 31.6923 19.3695 34.3949 21.3621 36.3876C23.3548 38.3802 26.0574 39.4997 28.8754 39.4997C31.6934 39.4997 34.396 38.3802 36.3887 36.3876V36.3876Z" stroke="#B72126" stroke-width="1.5" stroke-linecap="round" stroke-linejoin="round"/>
</svg>