<svg width="104" height="64" viewBox="0 0 104 64" fill="none" xmlns="http://www.w3.org/2000/svg">
<g clip-path="url(#clip0_42557_973)">
<g filter="url(#filter0_d_42557_973)">
<path d="M33.8665 55H5.5785C4.76783 55 4.1705 54.8293 3.7865 54.488C3.44517 54.104 3.2745 53.5067 3.2745 52.696V44.952C3.2745 44.1413 3.44517 43.5653 3.7865 43.224C4.1705 42.84 4.76783 42.648 5.5785 42.648H12.7465V21.272H6.8585C6.04783 21.272 5.4505 21.1013 5.0665 20.76C4.72517 20.376 4.5545 19.7787 4.5545 18.968V11.224C4.5545 10.4133 4.72517 9.83733 5.0665 9.496C5.4505 9.112 6.04783 8.92 6.8585 8.92H25.4185C26.2292 8.92 26.8052 9.112 27.1465 9.496C27.5305 9.83733 27.7225 10.4133 27.7225 11.224V42.648H33.8665C34.6772 42.648 35.2532 42.84 35.5945 43.224C35.9785 43.5653 36.1705 44.1413 36.1705 44.952V52.696C36.1705 53.5067 35.9785 54.104 35.5945 54.488C35.2532 54.8293 34.6772 55 33.8665 55ZM63.536 55H43.184C42.3733 55 41.776 54.8293 41.392 54.488C41.0507 54.104 40.88 53.5067 40.88 52.696V45.208C40.88 44.3973 41.0507 43.8213 41.392 43.48C41.776 43.096 42.3733 42.904 43.184 42.904H59.696C60.208 42.904 60.6133 42.7973 60.912 42.584C61.2533 42.328 61.424 41.944 61.424 41.432V38.936C61.424 38.424 61.2533 38.0613 60.912 37.848C60.6133 37.592 60.208 37.464 59.696 37.464H43.824C43.0133 37.464 42.416 37.2933 42.032 36.952C41.6907 36.568 41.52 35.9707 41.52 35.16V11.224C41.52 10.4133 41.6907 9.83733 42.032 9.496C42.416 9.112 43.0133 8.92 43.824 8.92H71.408C72.2187 8.92 72.7947 9.112 73.136 9.496C73.52 9.83733 73.712 10.4133 73.712 11.224V18.84C73.712 19.6507 73.52 20.248 73.136 20.632C72.7947 20.9733 72.2187 21.144 71.408 21.144H56.048V25.304H64.816C68.272 25.304 71.0027 26.1573 73.008 27.864C75.0133 29.5707 76.016 32.1093 76.016 35.48V44.376C76.016 47.6187 74.8853 50.2 72.624 52.12C70.4053 54.04 67.376 55 63.536 55Z" fill="#222222"/>
</g>
<path d="M80.5 27L113 59.5L80.5 92L48 59.5L80.5 27Z" fill="white"/>
<line x1="47.6464" y1="60.6464" x2="80.6464" y2="27.6464" stroke="#B72126"/>
<path d="M74.0258 50H71.9258C71.7484 50 71.6178 49.9627 71.5338 49.888C71.4591 49.804 71.4218 49.6733 71.4218 49.496V40.424C71.4218 40.2467 71.4591 40.1207 71.5338 40.046C71.6178 39.962 71.7484 39.92 71.9258 39.92H73.3818C73.5591 39.92 73.7084 39.948 73.8298 40.004C73.9604 40.06 74.0864 40.158 74.2078 40.298L76.9238 43.406V40.424C76.9238 40.2467 76.9611 40.1207 77.0358 40.046C77.1198 39.962 77.2504 39.92 77.4278 39.92H79.5278C79.7051 39.92 79.8311 39.962 79.9058 40.046C79.9898 40.1207 80.0318 40.2467 80.0318 40.424V49.496C80.0318 49.6733 79.9898 49.804 79.9058 49.888C79.8311 49.9627 79.7051 50 79.5278 50H77.4278C77.2504 50 77.1198 49.9627 77.0358 49.888C76.9611 49.804 76.9238 49.6733 76.9238 49.496V47.774L74.5298 44.876V49.496C74.5298 49.6733 74.4878 49.804 74.4038 49.888C74.3291 49.9627 74.2031 50 74.0258 50ZM85.3368 42.86L84.6788 44.988H86.8768L86.2188 42.86C86.1815 42.776 86.1395 42.7153 86.0928 42.678C86.0555 42.6407 86.0088 42.622 85.9528 42.622H85.6028C85.5468 42.622 85.4955 42.6407 85.4488 42.678C85.4115 42.7153 85.3741 42.776 85.3368 42.86ZM84.5388 49.496C84.5388 49.6733 84.4968 49.804 84.4128 49.888C84.3381 49.9627 84.2121 50 84.0348 50H81.9768C81.7995 50 81.6688 49.9627 81.5848 49.888C81.5101 49.804 81.4728 49.6733 81.4728 49.496V45.8C81.4728 45.52 81.5148 45.198 81.5988 44.834C81.6921 44.47 81.8321 44.0453 82.0188 43.56L83.2368 40.382C83.2928 40.2233 83.3768 40.1067 83.4888 40.032C83.6101 39.9573 83.7641 39.92 83.9508 39.92H87.7168C87.8941 39.92 88.0388 39.9573 88.1508 40.032C88.2721 40.1067 88.3608 40.2233 88.4168 40.382L89.6348 43.56C89.8215 44.0453 89.9568 44.47 90.0408 44.834C90.1341 45.198 90.1808 45.52 90.1808 45.8V49.496C90.1808 49.6733 90.1388 49.804 90.0548 49.888C89.9801 49.9627 89.8541 50 89.6768 50H87.5628C87.3761 50 87.2361 49.9627 87.1428 49.888C87.0588 49.804 87.0168 49.6733 87.0168 49.496V47.536H84.5388V49.496ZM88.8648 37.442C88.8648 37.7407 88.8181 38.016 88.7248 38.268C88.6408 38.5107 88.4821 38.7207 88.2488 38.898C88.0248 39.066 87.7168 39.2013 87.3248 39.304C86.9328 39.3973 86.4335 39.444 85.8268 39.444C85.2201 39.444 84.7208 39.3973 84.3288 39.304C83.9368 39.2013 83.6241 39.066 83.3908 38.898C83.1668 38.7207 83.0081 38.5107 82.9148 38.268C82.8308 38.016 82.7888 37.7407 82.7888 37.442V36.826C82.7888 36.6487 82.8261 36.5227 82.9008 36.448C82.9848 36.364 83.1155 36.322 83.2928 36.322H84.6368C84.7861 36.322 84.8888 36.3547 84.9448 36.42C85.0101 36.476 85.0428 36.588 85.0428 36.756V37.05C85.0428 37.1807 85.0895 37.2927 85.1828 37.386C85.2761 37.47 85.4955 37.512 85.8408 37.512C86.1861 37.512 86.4101 37.47 86.5128 37.386C86.6155 37.2927 86.6668 37.1807 86.6668 37.05V36.756C86.6668 36.588 86.6948 36.476 86.7508 36.42C86.8161 36.3547 86.9281 36.322 87.0868 36.322H88.3608C88.5381 36.322 88.6641 36.364 88.7388 36.448C88.8228 36.5227 88.8648 36.6487 88.8648 36.826V37.442ZM94.2194 50H92.1334C91.956 50 91.8254 49.9627 91.7414 49.888C91.6667 49.804 91.6294 49.6733 91.6294 49.496V40.424C91.6294 40.2467 91.6667 40.1207 91.7414 40.046C91.8254 39.962 91.956 39.92 92.1334 39.92H94.3874C94.5367 39.92 94.658 39.9527 94.7514 40.018C94.854 40.0833 94.9474 40.1907 95.0314 40.34L96.2914 42.622C96.338 42.706 96.3754 42.7667 96.4034 42.804C96.4407 42.8413 96.4874 42.86 96.5434 42.86H96.6694C96.7254 42.86 96.7674 42.8413 96.7954 42.804C96.8327 42.7667 96.8747 42.706 96.9214 42.622L98.1674 40.34C98.2514 40.1907 98.34 40.0833 98.4334 40.018C98.536 39.9527 98.662 39.92 98.8114 39.92H101.079C101.257 39.92 101.383 39.962 101.457 40.046C101.541 40.1207 101.583 40.2467 101.583 40.424V49.496C101.583 49.6733 101.541 49.804 101.457 49.888C101.383 49.9627 101.257 50 101.079 50H98.9234C98.746 50 98.6154 49.9627 98.5314 49.888C98.4567 49.804 98.4194 49.6733 98.4194 49.496V44.568L97.5934 46.094C97.5094 46.2527 97.4067 46.3693 97.2854 46.444C97.1734 46.5093 97.0287 46.542 96.8514 46.542H96.2914C96.114 46.542 95.9647 46.5093 95.8434 46.444C95.7314 46.3693 95.6334 46.2527 95.5494 46.094L94.7234 44.568V49.496C94.7234 49.6733 94.6814 49.804 94.5974 49.888C94.5227 49.9627 94.3967 50 94.2194 50Z" fill="#222222"/>
<path d="M66.8652 55.92L64.7772 58.376H67.3212V59H63.4172L66.2412 55.664C66.5132 55.344 66.6492 55.008 66.6492 54.656C66.6492 54.32 66.5292 54.04 66.2972 53.824C66.0652 53.6 65.7852 53.488 65.4492 53.488C65.0892 53.488 64.8012 53.608 64.5772 53.84C64.3612 54.072 64.2412 54.368 64.2332 54.728H63.5612C63.5692 54.192 63.7532 53.744 64.0972 53.392C64.4492 53.04 64.8892 52.864 65.4252 52.864C65.9532 52.864 66.4012 53.032 66.7692 53.368C67.1372 53.696 67.3212 54.128 67.3212 54.648C67.3212 55.136 67.1692 55.56 66.8652 55.92ZM70.3229 52.864C71.0189 52.864 71.5709 53.232 71.9789 53.96C72.3149 54.56 72.4829 55.24 72.4829 55.992C72.4829 56.8 72.2989 57.504 71.9229 58.104C71.5069 58.768 70.9709 59.104 70.3229 59.104C69.6349 59.104 69.0829 58.744 68.6749 58.016C68.3309 57.416 68.1629 56.736 68.1629 55.992C68.1629 55.24 68.3309 54.56 68.6669 53.96C69.0749 53.232 69.6269 52.864 70.3229 52.864ZM70.3229 53.488C69.8189 53.488 69.4269 53.8 69.1469 54.432C68.9309 54.928 68.8269 55.456 68.8349 56.024C68.8429 56.584 68.9549 57.096 69.1709 57.568C69.4509 58.176 69.8349 58.48 70.3229 58.48C70.8109 58.48 71.1949 58.176 71.4749 57.568C71.6909 57.096 71.8029 56.584 71.8109 56.024C71.8189 55.456 71.7149 54.928 71.4989 54.432C71.2189 53.8 70.8269 53.488 70.3229 53.488ZM75.0926 52.864C75.7886 52.864 76.3406 53.232 76.7486 53.96C77.0846 54.56 77.2526 55.24 77.2526 55.992C77.2526 56.8 77.0686 57.504 76.6926 58.104C76.2766 58.768 75.7406 59.104 75.0926 59.104C74.4046 59.104 73.8526 58.744 73.4446 58.016C73.1006 57.416 72.9326 56.736 72.9326 55.992C72.9326 55.24 73.1006 54.56 73.4366 53.96C73.8446 53.232 74.3966 52.864 75.0926 52.864ZM75.0926 53.488C74.5886 53.488 74.1966 53.8 73.9166 54.432C73.7006 54.928 73.5966 55.456 73.6046 56.024C73.6126 56.584 73.7246 57.096 73.9406 57.568C74.2206 58.176 74.6046 58.48 75.0926 58.48C75.5806 58.48 75.9646 58.176 76.2446 57.568C76.4606 57.096 76.5726 56.584 76.5806 56.024C76.5886 55.456 76.4846 54.928 76.2686 54.432C75.9886 53.8 75.5966 53.488 75.0926 53.488ZM81.3583 56.368L79.3583 59.104L78.8543 58.76L80.2463 56.848L80.2303 56.832C80.0543 56.888 79.8783 56.912 79.7103 56.912C79.1583 56.912 78.6943 56.72 78.3183 56.336C77.9423 55.944 77.7583 55.472 77.7583 54.92C77.7583 54.336 77.9583 53.848 78.3583 53.456C78.7663 53.064 79.2543 52.864 79.8383 52.864C80.4223 52.864 80.9103 53.064 81.3103 53.456C81.7183 53.848 81.9183 54.336 81.9183 54.92C81.9183 55.376 81.7343 55.856 81.3583 56.368ZM79.8383 53.488C79.4463 53.488 79.1183 53.624 78.8383 53.904C78.5663 54.176 78.4303 54.504 78.4303 54.896C78.4303 55.288 78.5663 55.624 78.8303 55.888C79.1023 56.152 79.4383 56.288 79.8383 56.288C80.2303 56.288 80.5663 56.152 80.8383 55.888C81.1103 55.624 81.2463 55.288 81.2463 54.896C81.2463 54.504 81.1103 54.176 80.8303 53.904C80.5583 53.624 80.2303 53.488 79.8383 53.488ZM82.184 57.368V56.776H83.824V57.368H82.184ZM87.448 55.92L85.36 58.376H87.904V59H84L86.824 55.664C87.096 55.344 87.232 55.008 87.232 54.656C87.232 54.32 87.112 54.04 86.88 53.824C86.648 53.6 86.368 53.488 86.032 53.488C85.672 53.488 85.384 53.608 85.16 53.84C84.944 54.072 84.824 54.368 84.816 54.728H84.144C84.152 54.192 84.336 53.744 84.68 53.392C85.032 53.04 85.472 52.864 86.008 52.864C86.536 52.864 86.984 53.032 87.352 53.368C87.72 53.696 87.904 54.128 87.904 54.648C87.904 55.136 87.752 55.56 87.448 55.92ZM90.9057 52.864C91.6017 52.864 92.1537 53.232 92.5617 53.96C92.8977 54.56 93.0657 55.24 93.0657 55.992C93.0657 56.8 92.8817 57.504 92.5057 58.104C92.0897 58.768 91.5537 59.104 90.9057 59.104C90.2177 59.104 89.6657 58.744 89.2577 58.016C88.9137 57.416 88.7457 56.736 88.7457 55.992C88.7457 55.24 88.9137 54.56 89.2497 53.96C89.6577 53.232 90.2097 52.864 90.9057 52.864ZM90.9057 53.488C90.4017 53.488 90.0097 53.8 89.7297 54.432C89.5137 54.928 89.4097 55.456 89.4177 56.024C89.4257 56.584 89.5377 57.096 89.7537 57.568C90.0337 58.176 90.4177 58.48 90.9057 58.48C91.3937 58.48 91.7777 58.176 92.0577 57.568C92.2737 57.096 92.3857 56.584 92.3937 56.024C92.4017 55.456 92.2977 54.928 92.0817 54.432C91.8017 53.8 91.4097 53.488 90.9057 53.488ZM96.9874 55.92L94.8994 58.376H97.4434V59H93.5394L96.3634 55.664C96.6354 55.344 96.7714 55.008 96.7714 54.656C96.7714 54.32 96.6514 54.04 96.4194 53.824C96.1874 53.6 95.9074 53.488 95.5714 53.488C95.2114 53.488 94.9234 53.608 94.6994 53.84C94.4834 54.072 94.3634 54.368 94.3554 54.728H93.6834C93.6914 54.192 93.8754 53.744 94.2194 53.392C94.5714 53.04 95.0114 52.864 95.5474 52.864C96.0754 52.864 96.5234 53.032 96.8914 53.368C97.2594 53.696 97.4434 54.128 97.4434 54.648C97.4434 55.136 97.2914 55.56 96.9874 55.92ZM101.789 52.632V57.4H102.533V58.024H101.789V59H101.117V58.024H98.0291L101.773 52.632H101.789ZM99.2051 57.4H101.117V54.672H101.101L99.2051 57.4Z" fill="#222222"/>
</g>
<defs>
<filter id="filter0_d_42557_973" x="0.275391" y="8.91992" width="75.7402" height="49.0801" filterUnits="userSpaceOnUse" color-interpolation-filters="sRGB">
<feFlood flood-opacity="0" result="BackgroundImageFix"/>
<feColorMatrix in="SourceAlpha" type="matrix" values="0 0 0 0 0 0 0 0 0 0 0 0 0 0 0 0 0 0 127 0" result="hardAlpha"/>
<feOffset dx="-3" dy="3"/>
<feComposite in2="hardAlpha" operator="out"/>
<feColorMatrix type="matrix" values="0 0 0 0 0 0 0 0 0 0 0 0 0 0 0 0 0 0 0.25 0"/>
<feBlend mode="normal" in2="BackgroundImageFix" result="effect1_dropShadow_42557_973"/>
<feBlend mode="normal" in="SourceGraphic" in2="effect1_dropShadow_42557_973" result="shape"/>
</filter>
<clipPath id="clip0_42557_973">
<rect width="104" height="64" fill="white"/>
</clipPath>
</defs>
</svg>
