<?xml version="1.0" encoding="utf-8"?>
<!DOCTYPE svg PUBLIC "-//W3C//DTD SVG 1.1//EN" "http://www.w3.org/Graphics/SVG/1.1/DTD/svg11.dtd">
<svg version="1.1" id="Layer_2" xmlns="http://www.w3.org/2000/svg" xmlns:xlink="http://www.w3.org/1999/xlink" x="0px" y="0px"
	width="200px" height="200px" viewBox="0 0 200 200" enable-background="new 0 0 200 200" xml:space="preserve">
	<rect fill="none" width="200" height="200"/>
	<path fill="#CCCCCC" d="M100,0C45.264,0,0,45.263,0,100c0,54.738,45.263,100,100,100c54.738,0,100-45.262,100-100
	C200,45.264,154.738,0,100,0z M100,10.527c49.476,0,89.473,40,89.473,89.473c0,19.998-6.316,37.896-16.843,52.632l-4.209-2.108
	c-8.419-3.155-26.316-9.473-38.949-13.681l0,0c0-2.108,1.054-5.264,2.107-8.419c1.053-3.167,3.155-8.431,4.209-13.692
	c3.161-4.211,5.263-9.474,6.316-15.79c1.055-7.368,1.055-11.578,0-14.736c0-1.053,0-9.474,1.055-15.79
	c1.054-6.317-1.055-17.895-7.371-27.369c-5.263-6.314-13.682-13.682-30.524-14.736h-8.421c-15.79,1.054-25.263,8.421-29.475,14.736
	C61.053,50.522,58.949,62.099,60,68.416c1.053,6.316,1.053,13.684,1.053,14.736c-1.053,4.211-2.104,7.37,0,14.738
	c1.051,6.314,3.158,11.578,6.314,15.792c1.054,5.263,3.158,10.525,4.211,13.687c1.052,2.103,1.052,4.21,1.052,8.419l0,0
	c-12.631,4.21-31.579,10.526-38.947,13.688l-5.264,3.161C16.843,137.9,9.474,118.956,9.474,98.952
	C10.527,50.526,50.526,10.527,100,10.527z M125.262,141.051L125.262,141.051l1.054-4.208l0,0L125.262,141.051z"/>
	<title>home_24_svg</title>
</svg>