<svg width="17" height="17" viewBox="0 0 17 17" fill="none" xmlns="http://www.w3.org/2000/svg">
<path d="M15.125 11.3438C15.75 11.625 16.0938 12.3125 15.9375 12.9688L15.2812 15.9062C15.125 16.5625 14.5625 17 13.875 17C6.21875 17 0 10.7812 0 3.125C0 2.4375 0.4375 1.875 1.09375 1.75L4.03125 1.0625C4.6875 0.90625 5.375 1.25 5.65625 1.875L7 5.0625C7.25 5.625 7.09375 6.3125 6.625 6.71875L5.34375 7.75C6.25 9.375 7.625 10.75 9.25 11.6562L10.3125 10.4062C10.6875 9.90625 11.375 9.75 11.9375 9.96875L15.125 11.3438ZM14.2812 15.6875L14.9688 12.75C15.0312 12.5312 14.9062 12.3438 14.7188 12.25L11.5625 10.9062C11.375 10.8438 11.1875 10.875 11.0625 11.0312L9.78125 12.5938C9.625 12.7812 9.375 12.8438 9.1875 12.7188C7.0625 11.6875 5.3125 9.9375 4.28125 7.84375C4.15625 7.625 4.21875 7.375 4.40625 7.21875L5.96875 5.9375C6.125 5.8125 6.15625 5.625 6.09375 5.4375L4.75 2.28125C4.65625 2.125 4.5 2 4.34375 2C4.3125 2 4.28125 2.03125 4.25 2.03125L1.3125 2.71875C1.125 2.75 1 2.90625 1 3.125C1 10.2188 6.78125 16.0312 13.875 16.0312C14.0938 16.0312 14.25 15.875 14.2812 15.6875Z" fill="white"/>
</svg>
