<svg width="20" height="19" viewBox="0 0 20 19" fill="none" xmlns="http://www.w3.org/2000/svg">
<path d="M7.5 13.7969L11.7969 9.5L7.5 5.24219V7.3125C7.5 7.85938 7.07031 8.25 6.5625 8.25H1.875V10.75H6.5625C7.07031 10.75 7.5 11.1797 7.5 11.6875V13.7969ZM13.75 9.5C13.75 9.96875 13.5547 10.3984 13.2422 10.7109L8.71094 15.2422C8.35938 15.5938 7.89062 15.75 7.42188 15.75C6.40625 15.75 5.625 14.9688 5.625 13.9531V12.625H1.875C0.820312 12.625 0 11.8047 0 10.75V8.25C0 7.23438 0.820312 6.375 1.875 6.375H5.625V5.08594C5.625 4.07031 6.40625 3.25 7.42188 3.25C7.89062 3.25 8.35938 3.44531 8.71094 3.79688L13.2422 8.32812C13.5547 8.64062 13.75 9.07031 13.75 9.5ZM13.4375 16.375H16.5625C17.4219 16.375 18.125 15.7109 18.125 14.8125V4.1875C18.125 3.32812 17.4219 2.625 16.5625 2.625H13.4375C12.8906 2.625 12.5 2.23438 12.5 1.6875C12.5 1.17969 12.8906 0.75 13.4375 0.75H16.5625C18.4375 0.75 20 2.3125 20 4.1875V14.8125C20 16.7266 18.4375 18.25 16.5625 18.25H13.4375C12.8906 18.25 12.5 17.8594 12.5 17.3125C12.5 16.8047 12.8906 16.375 13.4375 16.375Z" fill="#222222"/>
</svg>
