<svg width="18" height="18" viewBox="0 0 18 18" fill="none" xmlns="http://www.w3.org/2000/svg">
<path d="M8.03125 12.8438C8.03125 12.8438 8.03125 12.8438 8 12.8438C8.09375 13.0312 8.0625 13.25 7.90625 13.4062L5.0625 16.25C4.6875 16.625 4.1875 16.9062 3.65625 17C2.90625 17.0938 2.1875 16.8438 1.65625 16.3125C0.71875 15.375 0.71875 13.875 1.65625 12.9688L5.875 8.75C6.09375 8.5625 6.40625 8.5625 6.59375 8.75C6.78125 8.9375 6.78125 9.25 6.59375 9.4375L2.375 13.6562C1.78125 14.25 1.875 15.2812 2.59375 15.7812C3.15625 16.1562 3.90625 16.0312 4.375 15.5625L7.21875 12.7188C7.46875 12.4688 7.84375 12.5312 8.03125 12.8438ZM9.09375 3.78125C8.9375 4.0625 8.5625 4.09375 8.34375 3.875C8.1875 3.71875 8.15625 3.4375 8.28125 3.25C8.4375 2.9375 8.65625 2.65625 8.9375 2.40625C10.125 1.21875 11.7812 0.75 13.4062 1.15625C13.6875 1.21875 13.9375 1.46875 14 1.75C14.0938 2.0625 14 2.375 13.7812 2.59375L11.8125 4.59375L12.0312 5.96875L13.4062 6.1875L15.4062 4.1875C15.625 3.96875 15.9375 3.90625 16.25 3.96875C16.5312 4.0625 16.7812 4.3125 16.8438 4.59375C17.25 6.21875 16.7812 7.875 15.5938 9.0625C15.4375 9.25 15.25 9.40625 15.0625 9.53125C14.875 9.6875 14.5938 9.65625 14.4062 9.46875C14.1875 9.28125 14.2188 8.90625 14.4375 8.75C14.5938 8.625 14.75 8.5 14.9062 8.375C15.75 7.5 16.125 6.28125 15.9375 5.09375L13.75 7.25L11.1562 6.84375L10.75 4.25L12.9062 2.0625C12.6875 2.03125 12.4688 2 12.25 2C11.2812 2 10.3438 2.40625 9.625 3.09375C9.4375 3.3125 9.25 3.53125 9.09375 3.78125ZM2.96875 14.5C2.96875 14.25 3.21875 14.0312 3.46875 14.0312C3.6875 14.0312 3.9375 14.2812 3.9375 14.5C3.9375 14.75 3.71875 14.9688 3.46875 14.9688C3.1875 14.9688 2.96875 14.7812 2.96875 14.5ZM16.6875 13.1875C17.0938 13.5625 17.0938 14.2188 16.6562 14.5938L14.5625 16.7188C14.375 16.9062 14.125 17 13.875 17C13.5938 17 13.3438 16.9062 13.1562 16.6562L9.28125 12.7812C8.40625 11.9062 8.3125 10.5938 8.9375 9.625L6.28125 6.96875H4L1 3L3 1L6.96875 4V6.3125L9.65625 8.96875C10.0625 8.6875 10.5625 8.5625 11.0312 8.5625C11.6875 8.5625 12.3125 8.8125 12.8125 9.28125L16.6875 13.1875ZM5.96875 6H5.9375V4.5L3.0625 2.34375L2.3125 3.09375L4.5 6H5.96875ZM13.875 16L15.9688 13.875L12.0938 10C11.8125 9.71875 11.4375 9.5625 11.0312 9.5625C10.625 9.5625 10.25 9.71875 9.96875 10C9.6875 10.2812 9.53125 10.6562 9.53125 11.0625C9.53125 11.4688 9.6875 11.8438 9.96875 12.125L13.875 16Z" fill="white"/>
</svg>
