<svg width="21" height="21" viewBox="0 0 21 21" fill="none" xmlns="http://www.w3.org/2000/svg">
<path d="M14.375 8.625C14.375 6.39844 13.1641 4.36719 11.25 3.23438C9.29688 2.10156 6.91406 2.10156 5 3.23438C3.04688 4.36719 1.875 6.39844 1.875 8.625C1.875 10.8906 3.04688 12.9219 5 14.0547C6.91406 15.1875 9.29688 15.1875 11.25 14.0547C13.1641 12.9219 14.375 10.8906 14.375 8.625ZM13.1641 15.0312C11.7578 16.125 10 16.75 8.125 16.75C3.63281 16.75 0 13.1172 0 8.625C0 4.17188 3.63281 0.5 8.125 0.5C12.5781 0.5 16.25 4.17188 16.25 8.625C16.25 10.5391 15.5859 12.2969 14.4922 13.7031L19.7266 18.8984C20.0781 19.2891 20.0781 19.875 19.7266 20.2266C19.3359 20.6172 18.75 20.6172 18.3984 20.2266L13.1641 15.0312Z" fill="white"/>
</svg>
