<svg width="20" height="20" viewBox="0 0 20 20" fill="none" xmlns="http://www.w3.org/2000/svg">
<path d="M3.6001 1.59998C2.50029 1.59998 1.6001 2.50017 1.6001 3.59998V16.4C1.6001 17.4998 2.50029 18.4 3.6001 18.4H16.4001C17.4999 18.4 18.4001 17.4998 18.4001 16.4V3.59998C18.4001 2.50017 17.4999 1.59998 16.4001 1.59998H3.6001ZM3.6001 2.39998H6.23213C4.80369 3.88625 4.0001 5.80721 4.0001 7.79998C4.0001 9.86397 4.84416 11.8399 6.36416 13.3359C6.41216 13.4199 6.45207 13.8318 6.26807 14.3078C6.15207 14.6078 5.91997 14.9996 5.47197 15.1476C5.29997 15.2036 5.1881 15.3723 5.2001 15.5523C5.2121 15.7323 5.34441 15.8843 5.52041 15.9203C6.66841 16.1483 7.41182 15.804 8.01182 15.532C8.55182 15.284 8.90835 15.1158 9.45635 15.3398C10.5763 15.7758 11.7681 16 13.0001 16C14.6376 16 16.2127 15.6003 17.6001 14.8453V16.4C17.6001 17.0674 17.0675 17.6 16.4001 17.6H3.6001C2.9327 17.6 2.4001 17.0674 2.4001 16.4V3.59998C2.4001 2.93258 2.9327 2.39998 3.6001 2.39998ZM13.2001 5.99998C13.4201 5.99998 13.6001 6.17998 13.6001 6.39998V9.99998C13.6001 10.22 13.4201 10.4 13.2001 10.4C12.9801 10.4 12.8001 10.22 12.8001 9.99998V6.39998C12.8001 6.17998 12.9801 5.99998 13.2001 5.99998ZM7.2001 6.39998H9.2001C9.3441 6.39998 9.48044 6.47979 9.55244 6.60779C9.62044 6.73179 9.61594 6.88769 9.53994 7.01169L7.92041 9.59998H9.2001C9.4201 9.59998 9.6001 9.77997 9.6001 9.99998C9.6001 10.22 9.4201 10.4 9.2001 10.4H7.2001C7.0561 10.4 6.91975 10.3202 6.84775 10.1922C6.77975 10.0682 6.78425 9.91226 6.86025 9.78826L8.47978 7.19998H7.2001C6.9801 7.19998 6.8001 7.01998 6.8001 6.79998C6.8001 6.57998 6.9801 6.39998 7.2001 6.39998ZM11.0001 7.59998C11.2441 7.59998 11.4719 7.66766 11.6759 7.77966C11.7479 7.67566 11.8601 7.59998 12.0001 7.59998C12.2201 7.59998 12.4001 7.77998 12.4001 7.99998V9.99998C12.4001 10.22 12.2201 10.4 12.0001 10.4C11.8601 10.4 11.7479 10.3243 11.6759 10.2203C11.4719 10.3323 11.2441 10.4 11.0001 10.4C10.2281 10.4 9.6001 9.77198 9.6001 8.99998C9.6001 8.22798 10.2281 7.59998 11.0001 7.59998ZM15.4001 7.59998C16.1721 7.59998 16.8001 8.22798 16.8001 8.99998C16.8001 9.77198 16.1721 10.4 15.4001 10.4C14.6281 10.4 14.0001 9.77198 14.0001 8.99998C14.0001 8.22798 14.6281 7.59998 15.4001 7.59998ZM11.0001 8.39998C10.9586 8.39998 10.9181 8.4045 10.879 8.41248C10.8008 8.42843 10.728 8.45924 10.6642 8.50232C10.6003 8.5454 10.5455 8.60021 10.5024 8.66404C10.4594 8.72787 10.4286 8.80068 10.4126 8.87888C10.4046 8.91798 10.4001 8.95848 10.4001 8.99998C10.4001 9.04148 10.4046 9.08197 10.4126 9.12107C10.4206 9.16017 10.4318 9.19766 10.447 9.23357C10.4621 9.26948 10.4809 9.304 10.5024 9.33591C10.524 9.36783 10.5488 9.39707 10.5759 9.42419C10.603 9.45132 10.6322 9.47609 10.6642 9.49763C10.728 9.54071 10.8008 9.57152 10.879 9.58748C10.9181 9.59545 10.9586 9.59998 11.0001 9.59998C11.0416 9.59998 11.0821 9.59545 11.1212 9.58748C11.3949 9.53164 11.6001 9.29047 11.6001 8.99998C11.6001 8.66797 11.3321 8.39998 11.0001 8.39998ZM15.4001 8.39998C15.3586 8.39998 15.3181 8.4045 15.279 8.41248C15.2399 8.42045 15.2024 8.43169 15.1665 8.44685C15.1306 8.46201 15.0961 8.48078 15.0642 8.50232C15.0322 8.52386 15.003 8.54863 14.9759 8.57576C14.9216 8.63001 14.8773 8.69457 14.847 8.76638C14.8318 8.80229 14.8206 8.83978 14.8126 8.87888C14.8046 8.91798 14.8001 8.95848 14.8001 8.99998C14.8001 9.04148 14.8046 9.08197 14.8126 9.12107C14.8206 9.16017 14.8318 9.19766 14.847 9.23357C14.8621 9.26948 14.8809 9.304 14.9024 9.33591C14.924 9.36783 14.9488 9.39707 14.9759 9.42419C15.003 9.45132 15.0322 9.47609 15.0642 9.49763C15.0961 9.51917 15.1306 9.53794 15.1665 9.5531C15.2024 9.56826 15.2399 9.5795 15.279 9.58748C15.3181 9.59545 15.3586 9.59998 15.4001 9.59998C15.4416 9.59998 15.4821 9.59545 15.5212 9.58748C15.7949 9.53164 16.0001 9.29047 16.0001 8.99998C16.0001 8.66797 15.7321 8.39998 15.4001 8.39998Z" fill="white"/>
</svg>
